<?xml version="1.0" standalone="no"?>
<!DOCTYPE svg PUBLIC "-//W3C//DTD SVG 20010904//EN"
 "http://www.w3.org/TR/2001/REC-SVG-20010904/DTD/svg10.dtd">
<svg version="1.0" xmlns="http://www.w3.org/2000/svg"
 width="72.000000pt" height="72.000000pt" viewBox="0 0 72.000000 72.000000"
 preserveAspectRatio="xMidYMid meet">
<metadata>
Created by potrace 1.11, written by Peter Selinger 2001-2013
</metadata>
<g transform="translate(0.000000,72.000000) scale(0.100000,-0.100000)"
fill="#000000" stroke="none">
<path d="M261 649 c-142 -27 -241 -143 -241 -284 0 -67 17 -115 40 -115 17 0
17 3 3 51 -11 37 -13 63 -6 97 l9 47 21 -47 c14 -30 32 -52 52 -63 34 -17 37
-26 20 -57 -11 -20 -9 -21 35 -16 25 3 53 11 62 19 14 12 14 14 -5 21 -12 4
-21 15 -21 24 0 13 -6 15 -30 11 -31 -7 -60 12 -60 39 0 8 -7 14 -15 14 -20 0
-19 26 1 34 25 10 31 7 37 -14 3 -11 10 -20 17 -20 7 0 9 8 5 19 -4 13 4 27
27 46 18 16 32 32 31 36 -2 4 6 11 17 14 11 4 20 11 20 16 0 16 -32 23 -51 11
-13 -8 -20 -9 -25 -1 -7 12 13 29 34 29 6 0 12 5 12 11 0 6 -8 8 -19 4 -11 -3
-22 -1 -25 4 -20 31 154 51 177 21 18 -24 187 -112 187 -98 0 6 -24 35 -53 64
-72 69 -166 100 -256 83z"/>
<path d="M326 552 c-3 -5 22 -31 56 -58 34 -27 72 -63 85 -81 l24 -31 -43 -30
c-38 -26 -49 -29 -100 -24 -66 5 -74 -7 -23 -31 34 -16 39 -27 36 -74 -4 -38
14 -33 38 13 16 30 38 52 70 69 62 35 66 30 96 -159 6 -40 19 -50 38 -29 12
14 17 46 20 146 2 70 6 129 8 130 2 2 21 12 42 22 26 14 37 26 37 42 0 30 -31
30 -76 2 l-33 -20 -62 36 c-68 40 -171 85 -193 85 -8 0 -17 -4 -20 -8z"/>
<path d="M236 249 c-78 -25 -186 -35 -214 -20 -18 10 -22 9 -22 -4 0 -24 48
-37 110 -30 76 8 213 48 218 63 5 16 -21 14 -92 -9z"/>
<path d="M257 203 c-42 -12 -47 -16 -43 -38 6 -34 -7 -39 -37 -15 -14 11 -38
20 -54 20 l-28 0 25 -21 c80 -65 199 -82 295 -44 70 29 121 75 111 100 -5 15
-11 13 -40 -17 -55 -57 -101 -72 -206 -69 l-35 1 36 25 c70 47 55 82 -24 58z"/>
</g>
</svg>
